<mxfile host="app.diagrams.net" agent="Mozilla/5.0 (Windows NT 10.0; Win64; x64) AppleWebKit/537.36 (KHTML, like Gecko) Chrome/131.0.0.0 Safari/537.36" version="25.0.1">
  <diagram name="Thêm sản phẩm vào giỏ hàng" id="0">
    <mxGraphModel dx="1434" dy="772" grid="1" gridSize="10" guides="1" tooltips="1" connect="1" arrows="1" fold="1" page="1" pageScale="1" pageWidth="827" pageHeight="1169" math="0" shadow="0">
      <root>
        <mxCell id="0" />
        <mxCell id="1" parent="0" />
        <mxCell id="start" value="Bắt đầu" style="ellipse;whiteSpace=wrap;html=1;aspect=fixed;fillColor=#d5e8d4;strokeColor=#82b366;fontSize=16;" parent="1" vertex="1">
          <mxGeometry x="100" y="50" width="120" height="60" as="geometry" />
        </mxCell>
        <mxCell id="check_method" value="Kiểm tra phương thức HTTP" style="rhombus;whiteSpace=wrap;html=1;strokeColor=#6c8ebf;fillColor=#dae8fc;fontSize=14;" parent="1" vertex="1">
          <mxGeometry x="100" y="150" width="160" height="80" as="geometry" />
        </mxCell>
        <mxCell id="method_post" value="Phương thức POST" style="edgeStyle=orthogonalEdgeStyle;rounded=0;orthogonalLoop=1;jettySize=auto;strokeColor=#82b366;strokeWidth=2;" parent="1" source="check_method" target="get_data" edge="1">
          <mxGeometry relative="1" as="geometry" />
        </mxCell>
        <mxCell id="method_not_post" value="Không phải POST" style="edgeStyle=orthogonalEdgeStyle;rounded=0;orthogonalLoop=1;jettySize=auto;strokeColor=#d9534f;strokeWidth=2;" parent="1" source="check_method" edge="1">
          <mxGeometry relative="1" as="geometry" />
        </mxCell>
        <mxCell id="get_data" value="Nhận dữ liệu từ POST (ID sản phẩm, số lượng, giá...)" style="rectangle;whiteSpace=wrap;html=1;fillColor=#fff2cc;strokeColor=#d6b656;fontSize=14;" parent="1" vertex="1">
          <mxGeometry x="300" y="150" width="220" height="100" as="geometry" />
        </mxCell>
        <mxCell id="check_data" value="Kiểm tra dữ liệu sản phẩm (Hợp lệ/Không hợp lệ)" style="rhombus;whiteSpace=wrap;html=1;strokeColor=#6c8ebf;fillColor=#dae8fc;fontSize=14;" parent="1" vertex="1">
          <mxGeometry x="300" y="280" width="200" height="100" as="geometry" />
        </mxCell>
        <mxCell id="data_valid" value="Dữ liệu hợp lệ" style="edgeStyle=orthogonalEdgeStyle;rounded=0;orthogonalLoop=1;jettySize=auto;strokeColor=#82b366;strokeWidth=2;" parent="1" source="check_data" target="check_stock" edge="1">
          <mxGeometry relative="1" as="geometry" />
        </mxCell>
        <mxCell id="data_invalid" value="Dữ liệu không hợp lệ" style="edgeStyle=orthogonalEdgeStyle;rounded=0;orthogonalLoop=1;jettySize=auto;strokeColor=#d9534f;strokeWidth=2;" parent="1" source="check_data" edge="1">
          <mxGeometry relative="1" as="geometry" />
        </mxCell>
        <mxCell id="check_stock" value="Kiểm tra số lượng tồn kho (Đủ/Không đủ)" style="rhombus;whiteSpace=wrap;html=1;strokeColor=#6c8ebf;fillColor=#dae8fc;fontSize=14;" parent="1" vertex="1">
          <mxGeometry x="300" y="400" width="200" height="100" as="geometry" />
        </mxCell>
        <mxCell id="stock_enough" value="Số lượng đủ" style="edgeStyle=orthogonalEdgeStyle;rounded=0;orthogonalLoop=1;jettySize=auto;strokeColor=#82b366;strokeWidth=2;" parent="1" source="check_stock" target="check_login" edge="1">
          <mxGeometry relative="1" as="geometry" />
        </mxCell>
        <mxCell id="stock_insufficient" value="Số lượng không đủ" style="edgeStyle=orthogonalEdgeStyle;rounded=0;orthogonalLoop=1;jettySize=auto;strokeColor=#d9534f;strokeWidth=2;" parent="1" source="check_stock" edge="1">
          <mxGeometry relative="1" as="geometry" />
        </mxCell>
        <mxCell id="check_login" value="Kiểm tra đăng nhập người dùng" style="rhombus;whiteSpace=wrap;html=1;strokeColor=#6c8ebf;fillColor=#dae8fc;fontSize=14;" parent="1" vertex="1">
          <mxGeometry x="300" y="520" width="200" height="100" as="geometry" />
        </mxCell>
        <mxCell id="login_yes" value="Đã đăng nhập" style="edgeStyle=orthogonalEdgeStyle;rounded=0;orthogonalLoop=1;jettySize=auto;strokeColor=#82b366;strokeWidth=2;" parent="1" source="check_login" target="check_cart" edge="1">
          <mxGeometry relative="1" as="geometry" />
        </mxCell>
        <mxCell id="login_no" value="Chưa đăng nhập" style="edgeStyle=orthogonalEdgeStyle;rounded=0;orthogonalLoop=1;jettySize=auto;strokeColor=#d9534f;strokeWidth=2;" parent="1" source="check_login" edge="1">
          <mxGeometry relative="1" as="geometry" />
        </mxCell>
        <mxCell id="check_cart" value="Kiểm tra giỏ hàng (Tạo mới hoặc cập nhật)" style="rectangle;whiteSpace=wrap;html=1;fillColor=#fff2cc;strokeColor=#d6b656;fontSize=14;" parent="1" vertex="1">
          <mxGeometry x="270" y="680" width="240" height="100" as="geometry" />
        </mxCell>
        <mxCell id="end" value="Kết thúc" style="ellipse;whiteSpace=wrap;html=1;aspect=fixed;fillColor=#d5e8d4;strokeColor=#82b366;fontSize=16;" parent="1" vertex="1">
          <mxGeometry x="330" y="820" width="120" height="60" as="geometry" />
        </mxCell>
      </root>
    </mxGraphModel>
  </diagram>
</mxfile>
